<mxfile host="app.diagrams.net" agent="Mozilla/5.0 (Windows NT 10.0; Win64; x64) AppleWebKit/537.36 (KHTML, like Gecko) Chrome/130.0.0.0 Safari/537.36 Edg/130.0.0.0" version="24.8.0">
  <diagram name="Page-1" id="XwGPixU2q3gMsV32N4Xe">
    <mxGraphModel dx="1026" dy="421" grid="1" gridSize="10" guides="1" tooltips="1" connect="1" arrows="1" fold="1" page="1" pageScale="1" pageWidth="850" pageHeight="1100" math="0" shadow="0">
      <root>
        <mxCell id="0" />
        <mxCell id="1" parent="0" />
        <mxCell id="cacBty2ccQc7rlg18_zH-1" value="Welcome to {Website Name}" style="rounded=0;whiteSpace=wrap;html=1;" parent="1" vertex="1">
          <mxGeometry x="80" y="40" width="680" height="80" as="geometry" />
        </mxCell>
        <mxCell id="cacBty2ccQc7rlg18_zH-2" value="Pick A Game!" style="rounded=0;whiteSpace=wrap;html=1;" parent="1" vertex="1">
          <mxGeometry x="120" y="160" width="600" height="40" as="geometry" />
        </mxCell>
        <mxCell id="cacBty2ccQc7rlg18_zH-3" value="" style="rounded=0;whiteSpace=wrap;html=1;" parent="1" vertex="1">
          <mxGeometry x="40" y="340" width="230" height="120" as="geometry" />
        </mxCell>
        <mxCell id="cacBty2ccQc7rlg18_zH-4" value="" style="rounded=0;whiteSpace=wrap;html=1;" parent="1" vertex="1">
          <mxGeometry x="315" y="340" width="230" height="120" as="geometry" />
        </mxCell>
        <mxCell id="cacBty2ccQc7rlg18_zH-5" value="" style="rounded=0;whiteSpace=wrap;html=1;" parent="1" vertex="1">
          <mxGeometry x="599" y="340" width="221" height="120" as="geometry" />
        </mxCell>
        <mxCell id="cacBty2ccQc7rlg18_zH-6" value="NFL" style="rounded=0;whiteSpace=wrap;html=1;" parent="1" vertex="1">
          <mxGeometry x="379" y="325" width="100" height="30" as="geometry" />
        </mxCell>
        <mxCell id="cacBty2ccQc7rlg18_zH-7" value="Cities" style="rounded=0;whiteSpace=wrap;html=1;" parent="1" vertex="1">
          <mxGeometry x="104" y="325" width="100" height="30" as="geometry" />
        </mxCell>
        <mxCell id="cacBty2ccQc7rlg18_zH-8" value="Animals" style="rounded=0;whiteSpace=wrap;html=1;" parent="1" vertex="1">
          <mxGeometry x="659.5" y="320" width="100" height="30" as="geometry" />
        </mxCell>
        <mxCell id="cacBty2ccQc7rlg18_zH-19" value="Play Now!" style="rounded=0;whiteSpace=wrap;html=1;" parent="1" vertex="1">
          <mxGeometry x="628.5" y="400" width="160" height="40" as="geometry" />
        </mxCell>
        <mxCell id="cacBty2ccQc7rlg18_zH-20" value="Play Now!" style="rounded=0;whiteSpace=wrap;html=1;" parent="1" vertex="1">
          <mxGeometry x="350" y="400" width="160" height="40" as="geometry" />
        </mxCell>
        <mxCell id="cacBty2ccQc7rlg18_zH-21" value="Play Now!" style="rounded=0;whiteSpace=wrap;html=1;" parent="1" vertex="1">
          <mxGeometry x="74" y="400" width="160" height="40" as="geometry" />
        </mxCell>
        <mxCell id="cacBty2ccQc7rlg18_zH-23" value="Footer" style="rounded=0;whiteSpace=wrap;html=1;" parent="1" vertex="1">
          <mxGeometry x="10" y="640" width="840" height="40" as="geometry" />
        </mxCell>
      </root>
    </mxGraphModel>
  </diagram>
</mxfile>
